<?xml version="1.0" encoding="UTF-8" ?>
<svg version="1.1" width="16" height="16" xmlns="http://www.w3.org/2000/svg" shape-rendering="crispEdges">
<rect x="0" y="0" width="3" height="1" fill="#14182E" />
<rect x="3" y="0" width="1" height="1" fill="#3D2936" />
<rect x="4" y="0" width="10" height="1" fill="#14182E" />
<rect x="14" y="0" width="1" height="3" fill="#3D2936" />
<rect x="15" y="0" width="1" height="1" fill="#14182E" />
<rect x="0" y="1" width="2" height="4" fill="#14182E" />
<rect x="2" y="1" width="1" height="1" fill="#3D2936" />
<rect x="3" y="1" width="1" height="2" fill="#52333F" />
<rect x="4" y="1" width="1" height="1" fill="#3D2936" />
<rect x="5" y="1" width="2" height="1" fill="#52333F" />
<rect x="7" y="1" width="3" height="1" fill="#3D2936" />
<rect x="10" y="1" width="3" height="1" fill="#52333F" />
<rect x="13" y="1" width="1" height="1" fill="#3D2936" />
<rect x="15" y="1" width="1" height="1" fill="#3D2936" />
<rect x="2" y="2" width="1" height="1" fill="#14182E" />
<rect x="4" y="2" width="10" height="1" fill="#BD6A62" />
<rect x="15" y="2" width="1" height="12" fill="#14182E" />
<rect x="2" y="3" width="1" height="1" fill="#52333F" />
<rect x="3" y="3" width="4" height="2" fill="#BD6A62" />
<rect x="7" y="3" width="2" height="2" fill="#4F1D4C" />
<rect x="9" y="3" width="4" height="2" fill="#BD6A62" />
<rect x="13" y="3" width="1" height="2" fill="#52333F" />
<rect x="14" y="3" width="1" height="10" fill="#14182E" />
<rect x="2" y="4" width="1" height="1" fill="#3D2936" />
<rect x="0" y="5" width="1" height="11" fill="#14182E" />
<rect x="1" y="5" width="1" height="1" fill="#52333F" />
<rect x="2" y="5" width="4" height="3" fill="#BD6A62" />
<rect x="6" y="5" width="2" height="5" fill="#4F1D4C" />
<rect x="8" y="5" width="3" height="1" fill="#BD6A62" />
<rect x="11" y="5" width="1" height="8" fill="#8F4D57" />
<rect x="12" y="5" width="1" height="2" fill="#3D2936" />
<rect x="13" y="5" width="1" height="6" fill="#14182E" />
<rect x="1" y="6" width="1" height="1" fill="#3D2936" />
<rect x="8" y="6" width="2" height="1" fill="#BD6A62" />
<rect x="10" y="6" width="1" height="6" fill="#8F4D57" />
<rect x="1" y="7" width="1" height="3" fill="#52333F" />
<rect x="8" y="7" width="2" height="4" fill="#8F4D57" />
<rect x="12" y="7" width="1" height="2" fill="#52333F" />
<rect x="2" y="8" width="4" height="3" fill="#8F4D57" />
<rect x="12" y="9" width="1" height="2" fill="#3D2936" />
<rect x="1" y="10" width="1" height="1" fill="#3D2936" />
<rect x="6" y="10" width="2" height="1" fill="#8F4D57" />
<rect x="1" y="11" width="1" height="5" fill="#14182E" />
<rect x="2" y="11" width="1" height="2" fill="#3D2936" />
<rect x="3" y="11" width="4" height="2" fill="#BD6A62" />
<rect x="7" y="11" width="2" height="2" fill="#4F1D4C" />
<rect x="9" y="11" width="1" height="1" fill="#8F4D57" />
<rect x="12" y="11" width="1" height="2" fill="#8F4D57" />
<rect x="13" y="11" width="1" height="2" fill="#52333F" />
<rect x="9" y="12" width="2" height="2" fill="#BD6A62" />
<rect x="2" y="13" width="1" height="1" fill="#14182E" />
<rect x="3" y="13" width="1" height="3" fill="#3D2936" />
<rect x="4" y="13" width="5" height="1" fill="#BD6A62" />
<rect x="11" y="13" width="3" height="1" fill="#BD6A62" />
<rect x="14" y="13" width="1" height="3" fill="#3D2936" />
<rect x="2" y="14" width="1" height="1" fill="#3D2936" />
<rect x="4" y="14" width="1" height="1" fill="#3D2936" />
<rect x="5" y="14" width="2" height="1" fill="#52333F" />
<rect x="7" y="14" width="3" height="1" fill="#3D2936" />
<rect x="10" y="14" width="4" height="1" fill="#52333F" />
<rect x="15" y="14" width="1" height="1" fill="#3D2936" />
<rect x="2" y="15" width="1" height="1" fill="#14182E" />
<rect x="4" y="15" width="10" height="1" fill="#14182E" />
<rect x="15" y="15" width="1" height="1" fill="#14182E" />
</svg>